C:/Users/Gabrielle/krita/Krita (x64)/bin/ffmpeg.exe -hide_banner -y -y -r 24 -start_number 0 -start_number_range 1 -i C:/Users/Gabrielle/Downloads/frame%04d.png -i C:/deds/KritaTempPalettegen_%06d.png -lavfi [0:v][1:v]paletteuse=dither=sierra2_4a:diff_mode=none -f gif -loop 0 -gifflags +transdiff C:/deds/Revecho_BouncingBall.gif
=====================================================
Input #0, image2, from 'C:/Users/Gabrielle/Downloads/frame%04d.png':
  Duration: 00:00:04.04, start: 0.000000, bitrate: N/A
  Stream #0:0: Video: png, rgba(pc), 4500x3508 [SAR 11811:11811 DAR 1125:877], 25 fps, 25 tbr, 25 tbn, 25 tbc
Input #1, image2, from 'C:/deds/KritaTempPalettegen_%06d.png':
  Duration: 00:00:00.04, start: 0.000000, bitrate: N/A
  Stream #1:0: Video: png, rgba(pc), 16x16 [SAR 1:1 DAR 1:1], 25 fps, 25 tbr, 25 tbn, 25 tbc
Stream mapping:
  Stream #0:0 (png) -> paletteuse:default
  Stream #1:0 (png) -> paletteuse:palette
  paletteuse -> Stream #0:0 (gif)
Press [q] to stop, [?] for help
[image2 @ 000001fd1a7e8d80] Thread message queue blocking; consider raising the thread_queue_size option (current value: 8)
Output #0, gif, to 'C:/deds/Revecho_BouncingBall.gif':
  Metadata:
    encoder         : Lavf58.76.100
  Stream #0:0: Video: gif, pal8(pc, gbr/unknown/unknown, progressive), 4500x3508 [SAR 1:1 DAR 1125:877], q=2-31, 200 kb/s, 24 fps, 100 tbn (default)
    Metadata:
      encoder         : Lavc58.134.100 gif
frame=    1 fps=0.0 q=-0.0 size=       0kB time=00:00:00.01 bitrate=   0.0kbits/s speed=0.0519x    frame=    2 fps=0.0 q=-0.0 size=      17kB time=00:00:00.05 bitrate=2848.2kbits/s speed=0.0551x    frame=    5 fps=3.4 q=-0.0 size=      35kB time=00:00:00.18 bitrate=1608.3kbits/s speed=0.121x    frame=    7 fps=3.4 q=-0.0 size=      47kB time=00:00:00.26 bitrate=1481.1kbits/s speed=0.127x    frame=    9 fps=3.4 q=-0.0 size=      63kB time=00:00:00.34 bitrate=1515.7kbits/s speed=0.13x    frame=   11 fps=3.4 q=-0.0 size=      83kB time=00:00:00.43 bitrate=1584.9kbits/s speed=0.134x    frame=   13 fps=3.5 q=-0.0 size=     103kB time=00:00:00.51 bitrate=1660.7kbits/s speed=0.136x    frame=   15 fps=3.5 q=-0.0 size=     113kB time=00:00:00.59 bitrate=1575.0kbits/s speed=0.137x    frame=   17 fps=3.5 q=-0.0 size=     134kB time=00:00:00.68 bitrate=1608.5kbits/s speed=0.14x    frame=   19 fps=3.5 q=-0.0 size=     148kB time=00:00:00.76 bitrate=1594.8kbits/s speed=0.14x    frame=   21 fps=3.5 q=-0.0 size=     163kB time=00:00:00.84 bitrate=1589.3kbits/s speed=0.14x    frame=   23 fps=3.5 q=-0.0 size=     183kB time=00:00:00.93 bitrate=1609.5kbits/s speed=0.142x    frame=   25 fps=3.5 q=-0.0 size=     203kB time=00:00:01.01 bitrate=1649.8kbits/s speed=0.142x    frame=   27 fps=3.5 q=-0.0 size=     224kB time=00:00:01.09 bitrate=1685.5kbits/s speed=0.142x    frame=   29 fps=3.5 q=-0.0 size=     245kB time=00:00:01.18 bitrate=1699.8kbits/s speed=0.143x    frame=   31 fps=3.5 q=-0.0 size=     256kB time=00:00:01.26 bitrate=1664.4kbits/s speed=0.143x    frame=   33 fps=3.5 q=-0.0 size=     256kB time=00:00:01.34 bitrate=1565.0kbits/s speed=0.143x    frame=   35 fps=3.5 q=-0.0 size=     256kB time=00:00:01.43 bitrate=1466.5kbits/s speed=0.144x    frame=   37 fps=3.5 q=-0.0 size=     256kB time=00:00:01.51 bitrate=1388.8kbits/s speed=0.144x    frame=   39 fps=3.5 q=-0.0 size=     256kB time=00:00:01.59 bitrate=1319.0kbits/s speed=0.144x    frame=   41 fps=3.5 q=-0.0 size=     256kB time=00:00:01.68 bitrate=1248.3kbits/s speed=0.145x    frame=   43 fps=3.5 q=-0.0 size=     256kB time=00:00:01.76 bitrate=1191.6kbits/s speed=0.145x    frame=   45 fps=3.5 q=-0.0 size=     256kB time=00:00:01.84 bitrate=1139.8kbits/s speed=0.144x    frame=   47 fps=3.5 q=-0.0 size=     256kB time=00:00:01.93 bitrate=1086.6kbits/s speed=0.145x    frame=   49 fps=3.5 q=-0.0 size=     256kB time=00:00:02.01 bitrate=1043.4kbits/s speed=0.145x    frame=   51 fps=3.5 q=-0.0 size=     256kB time=00:00:02.09 bitrate=1003.4kbits/s speed=0.145x    frame=   53 fps=3.5 q=-0.0 size=     256kB time=00:00:02.18 bitrate= 962.0kbits/s speed=0.146x    frame=   55 fps=3.5 q=-0.0 size=     256kB time=00:00:02.26 bitrate= 927.9kbits/s speed=0.146x    frame=   57 fps=3.5 q=-0.0 size=     256kB time=00:00:02.34 bitrate= 896.2kbits/s speed=0.146x    frame=   59 fps=3.5 q=-0.0 size=     512kB time=00:00:02.43 bitrate=1726.1kbits/s speed=0.146x    frame=   61 fps=3.6 q=-0.0 size=     512kB time=00:00:02.51 bitrate=1671.0kbits/s speed=0.146x    frame=   63 fps=3.6 q=-0.0 size=     512kB time=00:00:02.59 bitrate=1619.4kbits/s speed=0.146x    frame=   65 fps=3.6 q=-0.0 size=     512kB time=00:00:02.68 bitrate=1565.0kbits/s speed=0.146x    frame=   67 fps=3.6 q=-0.0 size=     512kB time=00:00:02.76 bitrate=1519.7kbits/s speed=0.146x    frame=   69 fps=3.6 q=-0.0 size=     512kB time=00:00:02.84 bitrate=1476.9kbits/s speed=0.146x    frame=   71 fps=3.6 q=-0.0 size=     512kB time=00:00:02.93 bitrate=1431.5kbits/s speed=0.147x    frame=   73 fps=3.6 q=-0.0 size=     512kB time=00:00:03.01 bitrate=1393.5kbits/s speed=0.147x    frame=   75 fps=3.6 q=-0.0 size=     512kB time=00:00:03.09 bitrate=1357.4kbits/s speed=0.147x    frame=   77 fps=3.6 q=-0.0 size=     512kB time=00:00:03.18 bitrate=1319.0kbits/s speed=0.147x    frame=   79 fps=3.6 q=-0.0 size=     512kB time=00:00:03.26 bitrate=1286.6kbits/s speed=0.147x    frame=   81 fps=3.6 q=-0.0 size=     512kB time=00:00:03.34 bitrate=1255.8kbits/s speed=0.147x    frame=   83 fps=3.6 q=-0.0 size=     512kB time=00:00:03.43 bitrate=1222.8kbits/s speed=0.148x    frame=   85 fps=3.6 q=-0.0 size=     512kB time=00:00:03.51 bitrate=1195.0kbits/s speed=0.147x    frame=   87 fps=3.6 q=-0.0 size=     512kB time=00:00:03.59 bitrate=1168.3kbits/s speed=0.147x    frame=   89 fps=3.6 q=-0.0 size=     512kB time=00:00:03.68 bitrate=1139.8kbits/s speed=0.148x    frame=   91 fps=3.6 q=-0.0 size=     512kB time=00:00:03.76 bitrate=1115.5kbits/s speed=0.148x    frame=   93 fps=3.6 q=-0.0 size=     512kB time=00:00:03.84 bitrate=1092.3kbits/s speed=0.148x    frame=   95 fps=3.6 q=-0.0 size=     512kB time=00:00:03.93 bitrate=1067.3kbits/s speed=0.148x    frame=   97 fps=3.6 q=-0.0 size=     512kB time=00:00:04.01 bitrate=1046.0kbits/s speed=0.148x    frame=   99 fps=3.6 q=-0.0 size=     512kB time=00:00:04.09 bitrate=1025.5kbits/s speed=0.148x    frame=  101 fps=3.6 q=-0.0 size=     512kB time=00:00:04.18 bitrate=1003.4kbits/s speed=0.148x    frame=  101 fps=3.5 q=-0.0 Lsize=     515kB time=00:00:04.18 bitrate=1008.6kbits/s speed=0.146x    
video:515kB audio:0kB subtitle:0kB other streams:0kB global headers:0kB muxing overhead: 0.003795%
